<svg width="37" height="37" viewBox="0 0 37 37" fill="none" xmlns="http://www.w3.org/2000/svg">
<path opacity="0.1" fill-rule="evenodd" clip-rule="evenodd" d="M0 18.5C0 8.28273 8.28273 0 18.5 0C28.7173 0 37 8.28273 37 18.5C37 28.7173 28.7173 37 18.5 37C8.28273 37 0 28.7173 0 18.5Z" fill="#EBA102"/>
<path d="M28.1156 18.5578C28.1156 13.2779 23.8377 9 18.5578 9C13.2779 9 9 13.2779 9 18.5578C9 23.3367 12.4686 27.3063 17.0548 28V21.3327H14.6268V18.5578H17.0548V16.4767C17.0548 14.0872 18.4807 12.7383 20.6389 12.7383C21.7181 12.7383 22.7972 12.931 22.7972 12.931V15.2819H21.6024C20.4077 15.2819 20.0223 16.0142 20.0223 16.785V18.5578H22.6815L22.2576 21.3327H20.0223V28C24.6085 27.3063 28.1156 23.3367 28.1156 18.5578Z" fill="#EBA102"/>
</svg>
