<svg width="37" height="37" viewBox="0 0 37 37" fill="none" xmlns="http://www.w3.org/2000/svg">
<path opacity="0.1" fill-rule="evenodd" clip-rule="evenodd" d="M0 18.5C0 8.28273 8.28273 0 18.5 0C28.7173 0 37 8.28273 37 18.5C37 28.7173 28.7173 37 18.5 37C8.28273 37 0 28.7173 0 18.5Z" fill="#EBA102"/>
<path fill-rule="evenodd" clip-rule="evenodd" d="M18.5009 9C15.9208 9 15.597 9.01128 14.5837 9.0574C13.5723 9.10371 12.882 9.26382 12.2779 9.49875C11.6531 9.7414 11.1231 10.066 10.595 10.5942C10.0666 11.1223 9.742 11.6523 9.49856 12.2769C9.26303 12.8811 9.10272 13.5717 9.0572 14.5826C9.01188 15.596 9 15.92 9 18.5C9 21.08 9.01148 21.4028 9.0574 22.4162C9.10391 23.4275 9.26402 24.1179 9.49876 24.7219C9.7416 25.3467 10.0662 25.8767 10.5944 26.4048C11.1223 26.9332 11.6523 27.2586 12.2767 27.5012C12.8812 27.7362 13.5717 27.8963 14.5829 27.9426C15.5962 27.9887 15.9198 28 18.4997 28C21.08 28 21.4028 27.9887 22.4161 27.9426C23.4275 27.8963 24.1186 27.7362 24.7231 27.5012C25.3477 27.2586 25.8769 26.9332 26.4048 26.4048C26.9332 25.8767 27.2578 25.3467 27.5012 24.7221C27.7348 24.1179 27.8951 23.4273 27.9426 22.4164C27.9881 21.403 28 21.08 28 18.5C28 15.92 27.9881 15.5962 27.9426 14.5828C27.8951 13.5715 27.7348 12.8811 27.5012 12.2771C27.2578 11.6523 26.9332 11.1223 26.4048 10.5942C25.8763 10.0658 25.3479 9.7412 24.7225 9.49875C24.1168 9.26382 23.4261 9.10371 22.4147 9.0574C21.4014 9.01128 21.0788 9 18.4979 9H18.5009ZM17.6486 10.712C17.9016 10.7116 18.1838 10.712 18.5008 10.712C21.0374 10.712 21.338 10.7211 22.3397 10.7666C23.2659 10.8089 23.7687 10.9637 24.1035 11.0937C24.5469 11.2659 24.8629 11.4718 25.1953 11.8043C25.5278 12.1368 25.7336 12.4534 25.9062 12.8968C26.0362 13.2312 26.1912 13.7339 26.2333 14.6602C26.2789 15.6617 26.2888 15.9625 26.2888 18.4978C26.2888 21.0331 26.2789 21.3339 26.2333 22.3354C26.191 23.2617 26.0362 23.7644 25.9062 24.0988C25.734 24.5422 25.5278 24.8579 25.1953 25.1902C24.8627 25.5227 24.5471 25.7285 24.1035 25.9007C23.769 26.0313 23.2659 26.1857 22.3397 26.228C21.3382 26.2735 21.0374 26.2834 18.5008 26.2834C15.9641 26.2834 15.6635 26.2735 14.662 26.228C13.7358 26.1853 13.233 26.0305 12.898 25.9005C12.4546 25.7283 12.138 25.5225 11.8055 25.19C11.473 24.8575 11.2671 24.5416 11.0945 24.098C10.9645 23.7636 10.8095 23.2609 10.7674 22.3346C10.7219 21.3332 10.7127 21.0323 10.7127 18.4954C10.7127 15.9585 10.7219 15.6593 10.7674 14.6578C10.8097 13.7316 10.9645 13.2289 11.0945 12.894C11.2667 12.4507 11.473 12.134 11.8055 11.8015C12.138 11.469 12.4546 11.2632 12.898 11.0906C13.2328 10.9599 13.7358 10.8056 14.662 10.763C15.5384 10.7234 15.878 10.7116 17.6486 10.7096V10.712ZM23.5719 12.2894C22.9425 12.2894 22.4319 12.7994 22.4319 13.429C22.4319 14.0583 22.9425 14.569 23.5719 14.569C24.2013 14.569 24.7119 14.0583 24.7119 13.429C24.7119 12.7996 24.2013 12.2894 23.5719 12.2894ZM18.5009 13.6213C15.8066 13.6213 13.6222 15.8057 13.6222 18.5C13.6222 21.1942 15.8066 23.3776 18.5009 23.3776C21.1952 23.3776 23.3788 21.1942 23.3788 18.5C23.3788 15.8057 21.1952 13.6213 18.5009 13.6213ZM18.5009 15.3333C20.2497 15.3333 21.6676 16.751 21.6676 18.5C21.6676 20.2488 20.2497 21.6666 18.5009 21.6666C16.7519 21.6666 15.3342 20.2488 15.3342 18.5C15.3342 16.751 16.7519 15.3333 18.5009 15.3333Z" fill="#EBA102"/>
</svg>
